# xmcd
#
# Track frame offsets:
#	150
#	15917
#	32442
#	52935
#	80340
#	103657
#	122665
#	142450
#	163112
#	185602
#	206420
#
# Disc length: 3050 seconds
#
# Revision: 10
# Processed by: cddbd v1.5.2PL0 Copyright (c) Steve Scherf et al.
# Submitted via: Jack! The Knife 20 Magnifico
#
DISCID=8c0be80b
DTITLE=Alanis Morissette - Under Rug Swept
DYEAR=2002
DGENRE=Rock
TTITLE0=21 Things I Want In A Lover
TTITLE1=Narcissus
TTITLE2=Hands Clean
TTITLE3=Flinch
TTITLE4=So Unsexy
TTITLE5=Precious Illusions
TTITLE6=That Particular Time
TTITLE7=A Man
TTITLE8=You Owe Me Nothing in Return
TTITLE9=Surrendering
TTITLE10=Utopia
EXTD=Alanis Morissette
EXTT0=Alanis Morissette
EXTT1=Alanis Morissette
EXTT2=Alanis Morissette
EXTT3=Alanis Morissette
EXTT4=Alanis Morissette
EXTT5=Alanis Morissette
EXTT6=Alanis Morissette
EXTT7=Alanis Morissette
EXTT8=Alanis Morissette
EXTT9=Alanis Morissette
EXTT10=Alanis Morissette
PLAYORDER=
